<?xml version="1.0" standalone="no"?>
<!DOCTYPE svg PUBLIC "-//W3C//DTD SVG 20010904//EN"
 "http://www.w3.org/TR/2001/REC-SVG-20010904/DTD/svg10.dtd">
<svg version="1.0" xmlns="http://www.w3.org/2000/svg"
 width="700.000000pt" height="700.000000pt" viewBox="0 0 700.000000 700.000000"
 preserveAspectRatio="xMidYMid meet">
<metadata>
Created by potrace 1.14, written by Peter Selinger 2001-2017
</metadata>
<g transform="translate(0.000000,700.000000) scale(0.100000,-0.100000)"
fill="#000000" stroke="none">
<path d="M2040 5437 c0 -5 90 -242 154 -407 65 -165 115 -296 196 -505 34 -88
72 -187 85 -220 22 -56 163 -420 342 -885 42 -107 86 -222 98 -255 12 -33 30
-77 39 -99 9 -21 16 -44 16 -50 0 -8 -86 -11 -310 -10 -209 0 -313 -3 -319
-10 -4 -6 -38 -96 -74 -201 -36 -104 -89 -255 -117 -334 -27 -80 -50 -146 -50
-148 0 -2 258 -3 574 -3 l573 0 43 -113 c23 -61 48 -125 55 -142 7 -16 20 -51
30 -77 10 -27 20 -49 24 -49 3 -1 426 -2 939 -3 617 -1 932 2 933 9 1 5 2 583
3 1283 l1 1272 -30 0 c-36 1 -913 1 -1075 0 l-115 0 0 -620 c0 -599 0 -619
-17 -583 -28 59 -548 1370 -548 1379 0 5 599 9 1350 9 l1350 -1 0 383 0 383
-2075 0 c-1141 0 -2075 -2 -2075 -3z"/>
<path d="M1821 5042 c-47 -125 -93 -246 -103 -269 -10 -23 -18 -44 -18 -47 0
-5 -925 -2481 -954 -2556 -50 -125 -87 -231 -83 -237 3 -5 256 -8 563 -8 l558
0 32 95 c30 92 305 928 481 1465 47 143 96 291 109 329 l23 70 -50 135 c-27
75 -53 145 -58 156 -5 11 -27 70 -49 130 -22 61 -90 243 -150 405 -61 162
-132 355 -158 427 -27 73 -51 133 -54 133 -3 0 -43 -103 -89 -228z"/>
</g>
</svg>
